#Props_Shadow_Mesh_(1)_15842_50.obj

v -0.005000033 4.889639E-06 0.005000015
v -0.005000052 4.883006E-06 -0.004999977
v 0.0050001 4.88307E-06 -0.005000066
v 0.005000119 4.889703E-06 0.004999926

vn -1.788139E-07 1 4.768372E-07
vn -1.788139E-07 1 4.768372E-07
vn -1.788139E-07 1 4.768372E-07
vn -1.788139E-07 1 4.768372E-07

vt 0 0
vt 0 1
vt 1 1
vt 1 0

g Props_Shadow_Mesh_(1)_15842_50
usemtl Props_Shadow_Mesh_(1)_15842_50
usemap Props_Shadow_Mesh_(1)_15842_50
f 1/1/1 3/3/3 2/2/2
f 1/1/1 4/4/4 3/3/3
