#GR_Shelf_2035_44.obj

v -0.07536888 -0.5987392 5.960464E-08
v -0.07536888 12.81246 -1.549721E-06
v -0.07536888 12.81246 0.2656206
v -0.07536888 -0.5987392 0.2656223
v -0.1121912 -0.5987392 0.2852113
v -0.100769 -0.5987392 0.2656223
v -0.100769 12.81246 0.2656206
v -0.1121912 12.81246 0.2852098
v -0.100769 -0.5987392 0.3048004
v -0.100769 12.81246 0.3047988
v 0.2292118 -0.5987392 0.3048004
v -0.100769 -0.5987392 0.3048004
v -0.100769 12.81246 0.3047988
v 0.2292118 12.81246 0.3047988
v -0.07536888 12.81246 0.2656206
v -0.100769 12.81246 0.2656206
v -0.100769 -0.5987392 0.2656223
v -0.07536888 -0.5987392 0.2656223

vn -1 0 0
vn -1 0 0
vn -1 0 0
vn -1 0 0
vn -1 2.384186E-07 0
vn -0.4980469 -0.8666992 5.960464E-08
vn -0.4980469 -0.8666992 5.960464E-08
vn -1 2.384186E-07 0
vn -0.4980469 0.8666992 -5.960464E-08
vn -0.4980469 0.8666992 -5.960464E-08
vn 0 1 -1.192093E-07
vn -0.4980469 0.8666992 -5.960464E-08
vn -0.4980469 0.8666992 -5.960464E-08
vn 0 1 -1.192093E-07
vn 0 -1 1.192093E-07
vn -0.4980469 -0.8666992 5.960464E-08
vn -0.4980469 -0.8666992 5.960464E-08
vn 0 -1 1.192093E-07

vt 0.9995117 22.5
vt 1 -21.5
vt 0.128418 -21.5
vt 0.128418 22.5
vt 0.06420898 22.5
vt 0.128418 22.5
vt 0.128418 -21.5
vt 0.06420898 -21.5
vt -1.66893E-06 22.5
vt 2.980232E-07 -21.5
vt -0.06002808 22.5
vt 1.022461 22.5
vt 1.022461 -21.5
vt -0.06002808 -21.5
vt 0.0607605 -21.5
vt -0.02255249 -21.5
vt -0.02256775 22.5
vt 0.06072998 22.5

g GR_Shelf_2035_44
usemtl GR_Shelf_2035_44
usemap GR_Shelf_2035_44
f 1/1/1 3/3/3 2/2/2
f 1/1/1 4/4/4 3/3/3
f 5/5/5 7/7/7 6/6/6
f 5/5/5 8/8/8 7/7/7
f 9/9/9 8/8/8 5/5/5
f 9/9/9 10/10/10 8/8/8
f 11/11/11 13/13/13 12/12/12
f 11/11/11 14/14/14 13/13/13
f 15/15/15 17/17/17 16/16/16
f 15/15/15 18/18/18 17/17/17
