#Kitchen_2_ChoppingBoard001_1987_1.obj

v 0.0003353199 4.275011E-08 -0.09615908
v 0.0003353199 0.003857182 -0.09615909
v 0.005050818 0.00385718 -0.1020955
v 0.005050818 4.039618E-08 -0.1020955
v -0.00560575 0.00385718 -0.1008782
v -0.00560575 4.084285E-08 -0.1008782
v -0.0008902512 3.848893E-08 -0.1068146
v -0.0008902512 0.003857178 -0.1068146
v -0.00560575 4.084285E-08 -0.1008782
v 0.0003353199 4.275011E-08 -0.09615908
v 0.005050818 4.039618E-08 -0.1020955
v -0.0008902512 3.848893E-08 -0.1068146
v 0.005050818 4.039618E-08 -0.1020955
v 0.005050818 0.00385718 -0.1020955
v -0.0008902512 0.003857178 -0.1068146
v -0.0008902512 3.848893E-08 -0.1068146
v -0.00560575 4.084285E-08 -0.1008782
v -0.00560575 0.00385718 -0.1008782
v 0.0003353199 0.003857182 -0.09615909
v 0.0003353199 4.275011E-08 -0.09615908
v 0.09882829 7.436955E-08 -0.01792222
v 0.09882829 0.003857214 -0.01792222
v 0.1035438 0.003857211 -0.0238584
v 0.1035438 7.201571E-08 -0.02385839
v 0.09288681 0.003857212 -0.02264164
v 0.09288681 7.246219E-08 -0.02264164
v 0.09760189 7.010816E-08 -0.02857828
v 0.09760189 0.00385721 -0.02857829
v 0.09288681 7.246219E-08 -0.02264164
v 0.09882829 7.436955E-08 -0.01792222
v 0.1035438 7.201571E-08 -0.02385839
v 0.09760189 7.010816E-08 -0.02857828
v 0.1035438 7.201571E-08 -0.02385839
v 0.1035438 0.003857211 -0.0238584
v 0.09760189 0.00385721 -0.02857829
v 0.09760189 7.010816E-08 -0.02857828
v 0.09288681 7.246219E-08 -0.02264164
v 0.09288681 0.003857212 -0.02264164
v 0.09882829 0.003857214 -0.01792222
v 0.09882829 7.436955E-08 -0.01792222
v -0.0001825142 1.237945E-07 0.1067233
v -0.0001825142 0.003857209 0.1067233
v 0.004532984 0.003857207 0.100787
v 0.004532984 1.214406E-07 0.100787
v -0.006124408 0.003857207 0.1020037
v -0.006124408 1.21887E-07 0.1020037
v -0.001408929 1.195332E-07 0.0960675
v -0.001408929 0.003857205 0.0960675
v -0.006124408 1.21887E-07 0.1020037
v -0.0001825142 1.237945E-07 0.1067233
v 0.004532984 1.214406E-07 0.100787
v -0.001408929 1.195332E-07 0.0960675
v 0.004532984 1.214406E-07 0.100787
v 0.004532984 0.003857207 0.100787
v -0.001408929 0.003857205 0.0960675
v -0.001408929 1.195332E-07 0.0960675
v -0.006124408 1.21887E-07 0.1020037
v -0.006124408 0.003857207 0.1020037
v -0.0001825142 0.003857209 0.1067233
v -0.0001825142 1.237945E-07 0.1067233
v -0.09902647 9.206217E-08 0.02820723
v -0.09902647 0.003857177 0.02820723
v -0.09431099 0.003857229 0.02227105
v -0.09431099 8.970834E-08 0.02227105
v -0.1049684 0.00385723 0.02348777
v -0.1049684 9.01548E-08 0.02348777
v -0.1002529 8.780088E-08 0.01755138
v -0.1002529 0.003857227 0.01755159
v -0.1049684 9.01548E-08 0.02348777
v -0.09902647 9.206217E-08 0.02820723
v -0.09431099 8.970834E-08 0.02227105
v -0.1002529 8.780088E-08 0.01755138
v -0.09431099 8.970834E-08 0.02227105
v -0.09431099 0.003857229 0.02227105
v -0.1002529 0.003857227 0.01755159
v -0.1002529 8.780088E-08 0.01755138
v -0.1049684 9.01548E-08 0.02348777
v -0.1049684 0.00385723 0.02348777
v -0.09902647 0.003857177 0.02820723
v -0.09902647 9.206217E-08 0.02820723
v 0.00134228 0.003013886 0.1145001
v 0.00134228 0.006870917 0.1145001
v 0.1118341 0.006870862 -0.02460002
v 0.1118341 0.003013831 -0.02460002
v -0.1118337 0.006870881 0.02459978
v -0.1118337 0.003013849 0.02459978
v -0.001341522 0.003013848 -0.1145001
v -0.001341522 0.006870879 -0.1145001
v -0.1118337 0.003013849 0.02459978
v 0.00134228 0.003013886 0.1145001
v 0.1118341 0.003013831 -0.02460002
v -0.001341522 0.003013848 -0.1145001
v 0.1118341 0.003013831 -0.02460002
v 0.1118341 0.006870862 -0.02460002
v -0.001341522 0.006870879 -0.1145001
v -0.001341522 0.003013848 -0.1145001
v -0.1118337 0.003013849 0.02459978
v -0.1118337 0.006870881 0.02459978
v 0.00134228 0.006870917 0.1145001
v 0.00134228 0.003013886 0.1145001
v 0.1097139 0.008098247 -0.02435947
v 0.00109752 0.008098247 0.1123809
v -0.1097135 0.008098211 0.02435944
v -0.001096742 0.008098211 -0.1123811
v 0.00134228 0.006870917 0.1145001
v -0.1118337 0.006870881 0.02459978
v -0.1097135 0.008098211 0.02435944
v 0.00109752 0.008098247 0.1123809
v 0.00109752 0.008098247 0.1123809
v 0.1097139 0.008098247 -0.02435947
v 0.1118341 0.006870862 -0.02460002
v 0.00134228 0.006870917 0.1145001
v 0.1097139 0.008098247 -0.02435947
v -0.001096742 0.008098211 -0.1123811
v -0.001341522 0.006870879 -0.1145001
v 0.1118341 0.006870862 -0.02460002
v -0.1118337 0.006870881 0.02459978
v -0.001341522 0.006870879 -0.1145001
v -0.001096742 0.008098211 -0.1123811
v -0.1097135 0.008098211 0.02435944
v 0.009220981 0.009721111 -0.0140049
v 0.04460425 0.009721116 0.0003323459
v 0.06304543 0.009721098 -0.04517937
v 0.02766174 0.009721092 -0.05951666
v 0.04669321 0.01197493 0.001178831
v 0.06513397 0.01197491 -0.04433293
v 0.06389168 0.01197491 -0.04726815
v 0.0285084 0.0119749 -0.06160517
v 0.007131582 0.01197492 -0.01485142
v 0.0255732 0.0119749 -0.06036311
v 0.06513397 0.02061536 -0.04433293
v 0.06389168 0.02061535 -0.04726815
v 0.06513397 0.01197491 -0.04433293
v 0.04669321 0.02061537 0.001178827
v 0.04669321 0.01197493 0.001178831
v 0.007131582 0.02061515 -0.01485142
v 0.007131582 0.01197492 -0.01485142
v 0.0255732 0.0119749 -0.06036311
v 0.0255732 0.02061513 -0.06036311
v 0.0285084 0.02061513 -0.06160518
v 0.0255732 0.02061513 -0.06036311
v 0.0285084 0.0119749 -0.06160517
v 0.06389168 0.01197491 -0.04726815
v 0.06389168 0.02061535 -0.04726815
v 0.007131582 0.02061515 -0.01485142
v 0.04669321 0.02061537 0.001178827
v 0.04669321 0.01197493 0.001178831
v 0.04460425 0.009721116 0.0003323459
v 0.009220981 0.009721111 -0.0140049
v 0.007131582 0.01197492 -0.01485142
v 0.0255732 0.02061513 -0.06036311
v 0.06513397 0.02061536 -0.04433293
v 0.04669321 0.02061537 0.001178827
v 0.007131582 0.02061515 -0.01485142
v 0.06389168 0.02061535 -0.04726815
v 0.0285084 0.02061513 -0.06160518
v 0.01227893 0.009295317 0.07858361
v -0.02310476 0.00929542 0.06424633
v -0.02310476 0.05840115 0.06424631
v 0.0122785 0.05840115 0.07858355
v 0.01312475 0.06065491 0.07649478
v -0.02225851 0.06065496 0.06215754
v -0.02434748 0.00929504 0.06131108
v -0.0243475 0.05840115 0.06131127
v -0.02310476 0.05840115 0.06424631
v -0.02310476 0.00929542 0.06424633
v -0.02225851 0.06065496 0.06215754
v 0.005278487 0.009295065 -0.01180333
v 0.005278487 0.05840112 -0.01180335
v 0.007367474 0.06065493 -0.01095708
v 0.04483969 0.009295288 0.004226882
v 0.01521415 0.009295317 0.07734133
v 0.01521415 0.05840115 0.07734131
v 0.04483969 0.05840112 0.004226862
v 0.04275115 0.06065493 0.003380413
v 0.01312475 0.06065491 0.07649478
v -0.02225851 0.06065496 0.06215754
v 0.007367474 0.06065493 -0.01095708
v 0.0122785 0.05840115 0.07858355
v 0.01227893 0.009295317 0.07858361
v 0.04483969 0.009295288 0.004226882
v 0.04483969 0.05840112 0.004226862
v 0.005278487 0.05840112 -0.01180335
v 0.005278487 0.009295065 -0.01180333
v 0.007367474 0.06065493 -0.01095708
v 0.04275115 0.06065493 0.003380413

vn 0.8339844 -1.192093E-07 0.5512695
vn 0.8339844 -1.192093E-07 0.5512695
vn 0.8339844 -1.192093E-07 0.5512695
vn 0.8339844 -1.192093E-07 0.5512695
vn -0.8339844 1.192093E-07 -0.5512695
vn -0.8339844 1.192093E-07 -0.5512695
vn -0.8339844 1.192093E-07 -0.5512695
vn -0.8339844 1.192093E-07 -0.5512695
vn 0 -1 -2.384186E-07
vn 0 -1 -2.384186E-07
vn 0 -1 -2.384186E-07
vn 0 -1 -2.384186E-07
vn 0.5512695 1.192093E-07 -0.8339844
vn 0.5512695 1.192093E-07 -0.8339844
vn 0.5512695 1.192093E-07 -0.8339844
vn 0.5512695 1.192093E-07 -0.8339844
vn -0.5512695 -1.192093E-07 0.8339844
vn -0.5512695 -1.192093E-07 0.8339844
vn -0.5512695 -1.192093E-07 0.8339844
vn -0.5512695 -1.192093E-07 0.8339844
vn 0.8339844 -1.192093E-07 0.5512695
vn 0.8339844 -1.192093E-07 0.5512695
vn 0.8339844 -1.192093E-07 0.5512695
vn 0.8339844 -1.192093E-07 0.5512695
vn -0.8339844 1.192093E-07 -0.5512695
vn -0.8339844 1.192093E-07 -0.5512695
vn -0.8339844 1.192093E-07 -0.5512695
vn -0.8339844 1.192093E-07 -0.5512695
vn -5.066395E-06 -1 7.331371E-06
vn -5.066395E-06 -1 7.331371E-06
vn -5.066395E-06 -1 7.331371E-06
vn -5.066395E-06 -1 7.331371E-06
vn 0.5512695 1.192093E-07 -0.8339844
vn 0.5512695 1.192093E-07 -0.8339844
vn 0.5512695 1.192093E-07 -0.8339844
vn 0.5512695 1.192093E-07 -0.8339844
vn -0.5512695 -1.192093E-07 0.8339844
vn -0.5512695 -1.192093E-07 0.8339844
vn -0.5512695 -1.192093E-07 0.8339844
vn -0.5512695 -1.192093E-07 0.8339844
vn 0.8339844 -1.192093E-07 0.5512695
vn 0.8339844 -1.192093E-07 0.5512695
vn 0.8339844 -1.192093E-07 0.5512695
vn 0.8339844 -1.192093E-07 0.5512695
vn -0.8339844 1.192093E-07 -0.5512695
vn -0.8339844 1.192093E-07 -0.5512695
vn -0.8339844 1.192093E-07 -0.5512695
vn -0.8339844 1.192093E-07 -0.5512695
vn -5.066395E-06 -1 7.331371E-06
vn -5.066395E-06 -1 7.331371E-06
vn -5.066395E-06 -1 7.331371E-06
vn -5.066395E-06 -1 7.331371E-06
vn 0.5512695 1.192093E-07 -0.8339844
vn 0.5512695 1.192093E-07 -0.8339844
vn 0.5512695 1.192093E-07 -0.8339844
vn 0.5512695 1.192093E-07 -0.8339844
vn -0.5512695 -1.192093E-07 0.8339844
vn -0.5512695 -1.192093E-07 0.8339844
vn -0.5512695 -1.192093E-07 0.8339844
vn -0.5512695 -1.192093E-07 0.8339844
vn 0.8339844 -1.192093E-07 0.5512695
vn 0.8339844 -1.192093E-07 0.5512695
vn 0.8339844 -1.192093E-07 0.5512695
vn 0.8339844 -1.192093E-07 0.5512695
vn -0.8339844 1.192093E-07 -0.5512695
vn -0.8339844 1.192093E-07 -0.5512695
vn -0.8339844 1.192093E-07 -0.5512695
vn -0.8339844 1.192093E-07 -0.5512695
vn -5.066395E-06 -1 7.331371E-06
vn -5.066395E-06 -1 7.331371E-06
vn -5.066395E-06 -1 7.331371E-06
vn -5.066395E-06 -1 7.331371E-06
vn 0.5512695 1.192093E-07 -0.8339844
vn 0.5512695 1.192093E-07 -0.8339844
vn 0.5512695 1.192093E-07 -0.8339844
vn 0.5512695 1.192093E-07 -0.8339844
vn -0.5512695 -1.192093E-07 0.8339844
vn -0.5512695 -1.192093E-07 0.8339844
vn -0.5512695 -1.192093E-07 0.8339844
vn -0.5512695 -1.192093E-07 0.8339844
vn 0.8339844 -1.192093E-07 0.5512695
vn 0.8339844 -1.192093E-07 0.5512695
vn 0.8339844 -1.192093E-07 0.5512695
vn 0.8339844 -1.192093E-07 0.5512695
vn -0.8339844 1.192093E-07 -0.5512695
vn -0.8339844 1.192093E-07 -0.5512695
vn -0.8339844 1.192093E-07 -0.5512695
vn -0.8339844 1.192093E-07 -0.5512695
vn 0 -1 -2.384186E-07
vn 0 -1 -2.384186E-07
vn 0 -1 -2.384186E-07
vn 0 -1 -2.384186E-07
vn 0.5512695 1.192093E-07 -0.8339844
vn 0.5512695 1.192093E-07 -0.8339844
vn 0.5512695 1.192093E-07 -0.8339844
vn 0.5512695 1.192093E-07 -0.8339844
vn -0.5512695 -1.192093E-07 0.8339844
vn -0.5512695 -1.192093E-07 0.8339844
vn -0.5512695 -1.192093E-07 0.8339844
vn -0.5512695 -1.192093E-07 0.8339844
vn 1.192093E-07 1 5.960464E-08
vn 1.192093E-07 1 5.960464E-08
vn 1.192093E-07 1 5.960464E-08
vn 1.192093E-07 1 5.960464E-08
vn -0.3481445 0.7753906 0.5263672
vn -0.3481445 0.7753906 0.5263672
vn -0.3481445 0.7753906 0.5263672
vn -0.3481445 0.7753906 0.5263672
vn 0.5258789 0.7758789 0.3476563
vn 0.5258789 0.7758789 0.3476563
vn 0.5258789 0.7758789 0.3476563
vn 0.5258789 0.7758789 0.3476563
vn 0.3481445 0.7753906 -0.5263672
vn 0.3481445 0.7753906 -0.5263672
vn 0.3481445 0.7753906 -0.5263672
vn 0.3481445 0.7753906 -0.5263672
vn -0.5258789 0.7758789 -0.3476563
vn -0.5258789 0.7758789 -0.3476563
vn -0.5258789 0.7758789 -0.3476563
vn -0.5258789 0.7758789 -0.3476563
vn -0.4611816 -0.8125 0.3562012
vn 0.1821289 -0.8125 0.5537109
vn 0.4584961 -0.8544922 -0.2431641
vn -0.2431641 -0.8544922 -0.4584961
vn 0.6367188 -0.3364258 0.6933594
vn 0.9248047 -0.3669434 -0.1000977
vn 0.6015625 -0.3669434 -0.7094727
vn -0.1000977 -0.3669434 -0.9248047
vn -0.9160156 -0.3364258 0.2166748
vn -0.7094727 -0.3669434 -0.6015625
vn 0.675293 0.734375 -0.06433105
vn 0.5600586 0.4758301 -0.6777344
vn 0.9248047 -0.3669434 -0.1000977
vn 0.3825684 0.5771484 0.7211914
vn 0.6367188 -0.3364258 0.6933594
vn -0.7211914 0.5771484 0.3825684
vn -0.9160156 -0.3364258 0.2166748
vn -0.7094727 -0.3669434 -0.6015625
vn -0.5229492 0.734375 -0.4321289
vn -0.08337402 0.4758301 -0.8754883
vn -0.5229492 0.734375 -0.4321289
vn -0.1000977 -0.3669434 -0.9248047
vn 0.6015625 -0.3669434 -0.7094727
vn 0.5600586 0.4758301 -0.6777344
vn -0.7211914 0.5771484 0.3825684
vn 0.3825684 0.5771484 0.7211914
vn 0.6367188 -0.3364258 0.6933594
vn 0.1821289 -0.8125 0.5537109
vn -0.4611816 -0.8125 0.3562012
vn -0.9160156 -0.3364258 0.2166748
vn -0.5229492 0.734375 -0.4321289
vn 0.675293 0.734375 -0.06433105
vn 0.3825684 0.5771484 0.7211914
vn -0.7211914 0.5771484 0.3825684
vn 0.5600586 0.4758301 -0.6777344
vn -0.08337402 0.4758301 -0.8754883
vn 0.0947876 -1.966953E-06 0.9951172
vn -0.6367188 -2.682209E-06 0.7709961
vn -0.6010742 0.3669434 0.7094727
vn 0.1000366 0.3669434 0.9248047
vn 0.2431641 0.8544922 0.4584961
vn -0.4584961 0.8544922 0.2431641
vn -0.9951172 -2.264977E-06 0.09484863
vn -0.9248047 0.3669434 0.1001587
vn -0.6010742 0.3669434 0.7094727
vn -0.6367188 -2.682209E-06 0.7709961
vn -0.4584961 0.8544922 0.2431641
vn -0.4685059 -1.66893E-06 -0.8833008
vn -0.3837891 0.2595215 -0.8857422
vn -0.1821289 0.8125 -0.5537109
vn 0.8833008 5.960464E-08 -0.4685059
vn 0.7705078 -1.192093E-07 0.6367188
vn 0.7094727 0.3669434 0.6015625
vn 0.8144531 0.2595215 -0.5180664
vn 0.4611816 0.8125 -0.3562012
vn 0.2431641 0.8544922 0.4584961
vn -0.4584961 0.8544922 0.2431641
vn -0.1821289 0.8125 -0.5537109
vn 0.1000366 0.3669434 0.9248047
vn 0.0947876 -1.966953E-06 0.9951172
vn 0.8833008 5.960464E-08 -0.4685059
vn 0.8144531 0.2595215 -0.5180664
vn -0.3837891 0.2595215 -0.8857422
vn -0.4685059 -1.66893E-06 -0.8833008
vn -0.1821289 0.8125 -0.5537109
vn 0.4611816 0.8125 -0.3562012

vt 0.6621094 0.8647461
vt 0.6630859 0.8657227
vt 0.6630859 0.8608398
vt 0.6621094 0.8613281
vt 0.6582031 0.8657227
vt 0.6586914 0.8647461
vt 0.6586914 0.8613281
vt 0.6582031 0.8608398
vt 0.6586914 0.8647461
vt 0.6621094 0.8647461
vt 0.6621094 0.8613281
vt 0.6586914 0.8613281
vt 0.6621094 0.8613281
vt 0.6630859 0.8608398
vt 0.6582031 0.8608398
vt 0.6586914 0.8613281
vt 0.6586914 0.8647461
vt 0.6582031 0.8657227
vt 0.6630859 0.8657227
vt 0.6621094 0.8647461
vt 0.2347412 0.9492188
vt 0.2355957 0.9501953
vt 0.2355957 0.9448242
vt 0.2347412 0.9458008
vt 0.2307129 0.9501953
vt 0.2314453 0.9492188
vt 0.2314453 0.9458008
vt 0.2307129 0.9448242
vt 0.2314453 0.9492188
vt 0.2347412 0.9492188
vt 0.2347412 0.9458008
vt 0.2314453 0.9458008
vt 0.2347412 0.9458008
vt 0.2355957 0.9448242
vt 0.2307129 0.9448242
vt 0.2314453 0.9458008
vt 0.2314453 0.9492188
vt 0.2307129 0.9501953
vt 0.2355957 0.9501953
vt 0.2347412 0.9492188
vt 0.6870117 0.7319336
vt 0.6860352 0.7314453
vt 0.6860352 0.7363281
vt 0.6870117 0.7353516
vt 0.6914063 0.7314453
vt 0.6904297 0.7319336
vt 0.6904297 0.7353516
vt 0.6914063 0.7363281
vt 0.6904297 0.7319336
vt 0.6870117 0.7319336
vt 0.6870117 0.7353516
vt 0.6904297 0.7353516
vt 0.6870117 0.7353516
vt 0.6860352 0.7363281
vt 0.6914063 0.7363281
vt 0.6904297 0.7353516
vt 0.6904297 0.7319336
vt 0.6914063 0.7314453
vt 0.6860352 0.7314453
vt 0.6870117 0.7319336
vt 0.7265625 0.7016602
vt 0.7255859 0.7026367
vt 0.7304688 0.7026367
vt 0.7294922 0.7016602
vt 0.7255859 0.6972656
vt 0.7265625 0.6982422
vt 0.7294922 0.6982422
vt 0.7304688 0.6972656
vt 0.7265625 0.6982422
vt 0.7265625 0.7016602
vt 0.7294922 0.7016602
vt 0.7294922 0.6982422
vt 0.7294922 0.7016602
vt 0.7304688 0.7026367
vt 0.7304688 0.6972656
vt 0.7294922 0.6982422
vt 0.7265625 0.6982422
vt 0.7255859 0.6972656
vt 0.7255859 0.7026367
vt 0.7265625 0.7016602
vt 0.4951172 0.5849609
vt 0.4960938 0.5859375
vt 0.5839844 0.5859375
vt 0.5849609 0.5849609
vt 0.4960938 0.6577148
vt 0.4951172 0.6586914
vt 0.5849609 0.6586914
vt 0.5839844 0.6577148
vt 0.4951172 0.5737305
vt 0.4951172 0.5849609
vt 0.5849609 0.5849609
vt 0.5849609 0.5737305
vt 0.5849609 0.5849609
vt 0.5839844 0.5859375
vt 0.5839844 0.6577148
vt 0.5849609 0.6586914
vt 0.4951172 0.6586914
vt 0.4960938 0.6577148
vt 0.4960938 0.5859375
vt 0.4951172 0.5849609
vt 0.5810547 0.5883789
vt 0.4987793 0.5883789
vt 0.4987793 0.6552734
vt 0.5810547 0.6552734
vt 0.4960938 0.5859375
vt 0.4960938 0.6577148
vt 0.4987793 0.6552734
vt 0.4987793 0.5883789
vt 0.4987793 0.5883789
vt 0.5810547 0.5883789
vt 0.5839844 0.5859375
vt 0.4960938 0.5859375
vt 0.5810547 0.5883789
vt 0.5810547 0.6552734
vt 0.5839844 0.6577148
vt 0.5839844 0.5859375
vt 0.4960938 0.6577148
vt 0.5839844 0.6577148
vt 0.5810547 0.6552734
vt 0.4987793 0.6552734
vt 0.2021484 0.9907227
vt 0.2021484 0.9746094
vt 0.1844482 0.9746094
vt 0.1844482 0.9907227
vt 0.2021484 0.9741211
vt 0.1844482 0.9741211
vt 0.1835938 0.9746094
vt 0.1835938 0.9907227
vt 0.2021484 0.9921875
vt 0.184082 0.9921875
vt 0.1791992 0.9760742
vt 0.1802979 0.9760742
vt 0.1791992 0.9731445
vt 0.161499 0.9760742
vt 0.1599121 0.9731445
vt 0.2021484 0.9951172
vt 0.2021484 0.9921875
vt 0.184082 0.9921875
vt 0.184082 0.9951172
vt 0.1802979 0.9907227
vt 0.1791992 0.9916992
vt 0.1835938 0.9907227
vt 0.1835938 0.9746094
vt 0.1802979 0.9760742
vt 0.161499 0.9916992
vt 0.161499 0.9760742
vt 0.1599121 0.9731445
vt 0.1574707 0.9770508
vt 0.1574707 0.9912109
vt 0.1583252 0.9916992
vt 0.1791992 0.9916992
vt 0.1791992 0.9760742
vt 0.161499 0.9760742
vt 0.161499 0.9916992
vt 0.1802979 0.9760742
vt 0.1802979 0.9907227
vt 0.5087891 0.7275391
vt 0.5229492 0.7275391
vt 0.5229492 0.7094727
vt 0.5087891 0.7094727
vt 0.5083008 0.7084961
vt 0.5224609 0.7084961
vt 0.5068359 0.6748047
vt 0.5068359 0.6928711
vt 0.5083008 0.6928711
vt 0.5083008 0.6748047
vt 0.5083008 0.6938477
vt 0.4768066 0.6748047
vt 0.4768066 0.6928711
vt 0.4768066 0.6938477
vt 0.4768066 0.7275391
vt 0.5078125 0.7275391
vt 0.5078125 0.7094727
vt 0.4768066 0.7094727
vt 0.4768066 0.7084961
vt 0.5083008 0.7084961
vt 0.5083008 0.6938477
vt 0.4768066 0.6938477
vt 0.5087891 0.7094727
vt 0.5087891 0.7275391
vt 0.4768066 0.7275391
vt 0.4768066 0.7094727
vt 0.4611816 0.7094727
vt 0.4611816 0.7275391
vt 0.4621582 0.7084961
vt 0.4768066 0.7084961

g Kitchen_2_ChoppingBoard001_1987_1
usemtl Kitchen_2_ChoppingBoard001_1987_1
usemap Kitchen_2_ChoppingBoard001_1987_1
f 1/1/1 3/3/3 2/2/2
f 1/1/1 4/4/4 3/3/3
f 5/5/5 7/7/7 6/6/6
f 5/5/5 8/8/8 7/7/7
f 9/9/9 11/11/11 10/10/10
f 9/9/9 12/12/12 11/11/11
f 13/13/13 15/15/15 14/14/14
f 13/13/13 16/16/16 15/15/15
f 17/17/17 19/19/19 18/18/18
f 17/17/17 20/20/20 19/19/19
f 21/21/21 23/23/23 22/22/22
f 21/21/21 24/24/24 23/23/23
f 25/25/25 27/27/27 26/26/26
f 25/25/25 28/28/28 27/27/27
f 29/29/29 31/31/31 30/30/30
f 29/29/29 32/32/32 31/31/31
f 33/33/33 35/35/35 34/34/34
f 33/33/33 36/36/36 35/35/35
f 37/37/37 39/39/39 38/38/38
f 37/37/37 40/40/40 39/39/39
f 41/41/41 43/43/43 42/42/42
f 41/41/41 44/44/44 43/43/43
f 45/45/45 47/47/47 46/46/46
f 45/45/45 48/48/48 47/47/47
f 49/49/49 51/51/51 50/50/50
f 49/49/49 52/52/52 51/51/51
f 53/53/53 55/55/55 54/54/54
f 53/53/53 56/56/56 55/55/55
f 57/57/57 59/59/59 58/58/58
f 57/57/57 60/60/60 59/59/59
f 61/61/61 63/63/63 62/62/62
f 61/61/61 64/64/64 63/63/63
f 65/65/65 67/67/67 66/66/66
f 65/65/65 68/68/68 67/67/67
f 69/69/69 71/71/71 70/70/70
f 69/69/69 72/72/72 71/71/71
f 73/73/73 75/75/75 74/74/74
f 73/73/73 76/76/76 75/75/75
f 77/77/77 79/79/79 78/78/78
f 77/77/77 80/80/80 79/79/79
f 81/81/81 83/83/83 82/82/82
f 81/81/81 84/84/84 83/83/83
f 85/85/85 87/87/87 86/86/86
f 85/85/85 88/88/88 87/87/87
f 89/89/89 91/91/91 90/90/90
f 89/89/89 92/92/92 91/91/91
f 93/93/93 95/95/95 94/94/94
f 93/93/93 96/96/96 95/95/95
f 97/97/97 99/99/99 98/98/98
f 97/97/97 100/100/100 99/99/99
f 101/101/101 103/103/103 102/102/102
f 101/101/101 104/104/104 103/103/103
f 105/105/105 107/107/107 106/106/106
f 105/105/105 108/108/108 107/107/107
f 109/109/109 111/111/111 110/110/110
f 109/109/109 112/112/112 111/111/111
f 113/113/113 115/115/115 114/114/114
f 113/113/113 116/116/116 115/115/115
f 117/117/117 119/119/119 118/118/118
f 117/117/117 120/120/120 119/119/119
f 121/121/121 123/123/123 122/122/122
f 121/121/121 124/124/124 123/123/123
f 123/123/123 125/125/125 122/122/122
f 123/123/123 126/126/126 125/125/125
f 126/126/126 123/123/123 127/127/127
f 123/123/123 128/128/128 127/127/127
f 123/123/123 124/124/124 128/128/128
f 129/129/129 124/124/124 121/121/121
f 129/129/129 130/130/130 124/124/124
f 128/128/128 124/124/124 130/130/130
f 131/131/131 127/127/127 132/132/132
f 131/131/131 133/133/133 127/127/127
f 134/134/134 133/133/133 131/131/131
f 134/134/134 135/135/135 133/133/133
f 136/136/136 138/138/138 137/137/137
f 136/136/136 139/139/139 138/138/138
f 140/140/140 138/138/138 141/141/141
f 140/140/140 142/142/142 138/138/138
f 140/140/140 143/143/143 142/142/142
f 140/140/140 144/144/144 143/143/143
f 145/145/145 147/147/147 146/146/146
f 147/147/147 145/145/145 148/148/148
f 148/148/148 145/145/145 149/149/149
f 149/149/149 145/145/145 150/150/150
f 151/151/151 153/153/153 152/152/152
f 151/151/151 154/154/154 153/153/153
f 151/151/151 152/152/152 155/155/155
f 151/151/151 155/155/155 156/156/156
f 157/157/157 159/159/159 158/158/158
f 157/157/157 160/160/160 159/159/159
f 161/161/161 159/159/159 160/160/160
f 161/161/161 162/162/162 159/159/159
f 163/163/163 165/165/165 164/164/164
f 163/163/163 166/166/166 165/165/165
f 167/167/167 164/164/164 165/165/165
f 168/168/168 163/163/163 164/164/164
f 168/168/168 164/164/164 169/169/169
f 167/167/167 169/169/169 164/164/164
f 167/167/167 170/170/170 169/169/169
f 171/171/171 173/173/173 172/172/172
f 171/171/171 174/174/174 173/173/173
f 173/173/173 174/174/174 175/175/175
f 173/173/173 175/175/175 176/176/176
f 175/175/175 177/177/177 176/176/176
f 175/175/175 178/178/178 177/177/177
f 172/172/172 173/173/173 179/179/179
f 173/173/173 176/176/176 179/179/179
f 172/172/172 179/179/179 180/180/180
f 181/181/181 183/183/183 182/182/182
f 181/181/181 184/184/184 183/183/183
f 182/182/182 183/183/183 185/185/185
f 182/182/182 185/185/185 186/186/186
