#Magazines6_1852_57.obj

v 0.01234901 -1.085596 0.3430932
v -0.009202663 -0.843477 0.3466105
v 0.0123497 -1.085538 0.3390424
v -0.0092013 -0.843418 0.3425591
v -0.1490808 -1.099961 0.3428469
v -0.1706318 -0.8578423 0.3463643
v 0.01234901 -1.085596 0.3430932
v -0.009202663 -0.843477 0.3466105
v -0.1490794 -1.099903 0.3387958
v -0.1706311 -0.8577834 0.3423128
v -0.1490808 -1.099961 0.3428469
v -0.1706318 -0.8578423 0.3463643
v -0.009202663 -0.843477 0.3466105
v -0.1706318 -0.8578423 0.3463643
v -0.0092013 -0.843418 0.3425591
v -0.1706311 -0.8577834 0.3423128
v -0.1490808 -1.099961 0.3428469
v 0.01234901 -1.085596 0.3430932
v -0.1490794 -1.099903 0.3387958
v 0.0123497 -1.085538 0.3390424
v -0.1756188 -0.7040123 0.3430516
v -0.1534302 -0.9460995 0.3430516
v -0.1756188 -0.7040123 0.3389999
v -0.1534302 -0.9460995 0.3389999
v -0.01422716 -0.6892201 0.3430516
v 0.007961432 -0.9313069 0.3430516
v -0.1756188 -0.7040123 0.3430516
v -0.1534302 -0.9460995 0.3430516
v -0.01422716 -0.6892201 0.3389999
v 0.007961432 -0.9313069 0.3389999
v -0.01422716 -0.6892201 0.3430516
v 0.007961432 -0.9313069 0.3430516
v -0.1534302 -0.9460995 0.3430516
v 0.007961432 -0.9313069 0.3430516
v -0.1534302 -0.9460995 0.3389999
v 0.007961432 -0.9313069 0.3389999
v -0.01422716 -0.6892201 0.3430516
v -0.1756188 -0.7040123 0.3430516
v -0.01422716 -0.6892201 0.3389999
v -0.1756188 -0.7040123 0.3389999

vn 0.9956055 0.001529694 -0.08856201
vn 0.9956055 0.001523972 -0.08856201
vn 0.9956055 0.001523972 -0.08856201
vn 0.9956055 0.001523972 -0.08856201
vn -0.0002309084 0.9995117 0.01454163
vn -0.0002334118 0.9995117 0.01454163
vn -0.0002317429 0.9995117 0.01454163
vn -0.0002315044 0.9995117 0.01454163
vn -0.9956055 -0.001519203 0.08862305
vn -0.9956055 -0.001519203 0.08862305
vn -0.9956055 -0.001519203 0.08862305
vn -0.9956055 -0.001519203 0.08862305
vn -0.08862305 0.01446533 -0.9956055
vn -0.08862305 0.0144577 -0.9956055
vn -0.08862305 0.01446533 -0.9956055
vn -0.08862305 0.0144577 -0.9956055
vn 0.08856201 -0.01449585 0.9956055
vn 0.08856201 -0.01448822 0.9956055
vn 0.08856201 -0.01448822 0.9956055
vn 0.08856201 -0.01448822 0.9956055
vn -0.9956055 0 0.09124756
vn -0.9956055 0 0.09124756
vn -0.9956055 0 0.09124756
vn -0.9956055 0 0.09124756
vn 0 1 -1.192093E-07
vn 0 1 -1.192093E-07
vn 0 1 -1.192093E-07
vn 0 1 -1.192093E-07
vn 0.9956055 0 -0.09124756
vn 0.9956055 0 -0.09124756
vn 0.9956055 0 -0.09124756
vn 0.9956055 0 -0.09124756
vn 0.09124756 5.960464E-08 0.9956055
vn 0.09124756 5.960464E-08 0.9956055
vn 0.09124756 5.960464E-08 0.9956055
vn 0.09124756 5.960464E-08 0.9956055
vn -0.09124756 -5.960464E-08 -0.9956055
vn -0.09124756 -5.960464E-08 -0.9956055
vn -0.09124756 -5.960464E-08 -0.9956055
vn -0.09124756 -5.960464E-08 -0.9956055

vt 0.3220215 0.4719238
vt 0.3220215 0.5546875
vt 0.3232422 0.470459
vt 0.3232422 0.5561523
vt 0.2052002 0.1636963
vt 0.1241455 0.1636963
vt 0.2052002 0.2180176
vt 0.1241455 0.2180176
vt 0.3813477 0.4804688
vt 0.3813477 0.565918
vt 0.3828125 0.4819336
vt 0.3828125 0.5644531
vt 0.9897461 0.2687988
vt 0.9897461 0.3198242
vt 0.9912109 0.2675781
vt 0.9912109 0.3210449
vt 0.9960938 0.3198242
vt 0.9960938 0.2687988
vt 0.9946289 0.3210449
vt 0.9946289 0.2675781
vt 0.2280273 0.4868164
vt 0.2280273 0.5693359
vt 0.2293701 0.4853516
vt 0.2293701 0.5708008
vt 0.7524414 0.6728516
vt 0.8334961 0.6728516
vt 0.7524414 0.6186523
vt 0.8334961 0.6186523
vt 0.3813477 0.8364258
vt 0.3813477 0.9223633
vt 0.3828125 0.8378906
vt 0.3828125 0.9208984
vt 0.4814453 0.01673889
vt 0.5327148 0.01673889
vt 0.4804688 0.01534271
vt 0.5336914 0.01534271
vt 0.9863281 0.3198242
vt 0.9863281 0.2687988
vt 0.9848633 0.3210449
vt 0.9848633 0.2675781

g Magazines6_1852_57
usemtl Magazines6_1852_57
usemap Magazines6_1852_57
f 1/1/1 3/3/3 2/2/2
f 2/2/2 3/3/3 4/4/4
f 5/5/5 7/7/7 6/6/6
f 6/6/6 7/7/7 8/8/8
f 9/9/9 11/11/11 10/10/10
f 10/10/10 11/11/11 12/12/12
f 13/13/13 15/15/15 14/14/14
f 14/14/14 15/15/15 16/16/16
f 17/17/17 19/19/19 18/18/18
f 18/18/18 19/19/19 20/20/20
f 21/21/21 23/23/23 22/22/22
f 22/22/22 23/23/23 24/24/24
f 25/25/25 27/27/27 26/26/26
f 26/26/26 27/27/27 28/28/28
f 29/29/29 31/31/31 30/30/30
f 30/30/30 31/31/31 32/32/32
f 33/33/33 35/35/35 34/34/34
f 34/34/34 35/35/35 36/36/36
f 37/37/37 39/39/39 38/38/38
f 38/38/38 39/39/39 40/40/40
