#StairsRightRail_2008_21.obj

v -0.3011388 -2.042329 -1.528938
v -0.3011388 -2.042329 -0.9178978
v -0.2944228 -2.04278 -0.9181441
v -0.2944228 -2.042781 -1.529185
v -0.3165631 -2.033135 -1.523923
v -0.3165631 -2.033134 -0.9128823
v -0.3288659 -2.013746 -1.513347
v -0.3288659 -2.013746 -0.9023068
v -0.3297905 -1.988772 -1.499725
v -0.3297905 -1.988772 -0.8886845
v -0.3183449 -1.961537 -1.48487
v -0.3183449 -1.961537 -0.8738294
v -0.2963812 -1.949335 -1.478214
v -0.2963812 -1.949335 -0.8671738
v -0.2655733 -1.948735 -1.477887
v -0.2655733 -1.948735 -0.8668468
v -0.2333035 -1.963386 -1.485879
v -0.2333035 -1.963386 -0.8748384
v -0.2100934 -1.99078 -1.500821
v -0.2100934 -1.99078 -0.8897809
v -0.2023527 -2.033255 -1.52399
v -0.2023527 -2.033255 -0.9129488
v -0.2113187 -2.072668 -1.545487
v -0.2113187 -2.072667 -0.9344466
v -0.2358958 -2.10515 -1.563205
v -0.2358958 -2.10515 -0.9521639
v -0.270061 -2.121281 -1.572003
v -0.270061 -2.121281 -0.9609625
v -0.3100532 -2.12369 -1.573317
v -0.3100532 -2.12369 -0.9622762
v -0.3452129 -2.112403 -1.56716
v -0.3452129 -2.112402 -0.9561193
v -0.3748038 -2.089635 -1.554741
v -0.3748038 -2.089634 -0.9437001
v -0.3968436 -2.054641 -1.535653
v -0.3968436 -2.05464 -0.9246123
v -0.4112772 -2.015978 -1.514564
v -0.4112772 -2.015978 -0.9035234
v -0.4181473 -1.974972 -1.492197
v -0.4181473 -1.974972 -0.8811567
v -0.4223678 -1.934059 -1.469881
v -0.4223678 -1.934059 -0.8588402
v -0.4236736 -1.893383 -1.447695
v -0.4236736 -1.893383 -0.8366542
v -0.4236736 -1.614173 -1.295398
v -0.4236736 -1.614173 -0.6843574
v -0.4236736 -1.334773 -1.142998
v -0.4236736 -1.334773 -0.5319579
v -0.4236736 -1.055374 -0.9905988
v -0.4236736 -1.055374 -0.3795583
v -0.4236737 -0.7759741 -0.8381989
v -0.4236737 -0.775974 -0.2271583
v -0.4236737 -0.4965746 -0.6857994
v -0.4236737 -0.4965744 -0.07475877
v -0.4128947 -0.2631462 -0.5584748
v -0.4128947 -0.2631462 0.05256581
v -0.4095566 -0.4965742 -0.6857991
v -0.4095566 -0.4965742 -0.07475853
v -0.3987777 -0.2631457 0.05256581
v -0.3987777 -0.263146 -0.5584748
v -0.4095569 -0.7759739 -0.8381988
v -0.4095569 -0.7759736 -0.2271583
v -0.4095561 -1.055374 -0.9905987
v -0.4095561 -1.055373 -0.3795581
v -0.4095561 -1.334773 -1.142998
v -0.4095561 -1.334773 -0.5319576
v -0.4095564 -1.614173 -1.295398
v -0.4095564 -1.614173 -0.6843574
v -0.4095568 -1.893326 -1.447663
v -0.4095568 -1.893326 -0.8366227
v -0.4111871 -1.932277 -1.468909
v -0.4111871 -1.932277 -0.8578684
v -0.4098268 -1.971613 -1.490365
v -0.4098268 -1.971613 -0.8793244
v -0.4044098 -2.010999 -1.511849
v -0.4044098 -2.010999 -0.900808
v -0.3914565 -2.047449 -1.53173
v -0.3914565 -2.047449 -0.9206898
v -0.371318 -2.080164 -1.549575
v -0.371318 -2.080164 -0.9385343
v -0.3436789 -2.102321 -1.561661
v -0.3436789 -2.102321 -0.9506204
v -0.3103012 -2.112865 -1.567412
v -0.3103012 -2.112865 -0.9563715
v -0.2722656 -2.111169 -1.566488
v -0.2722656 -2.111169 -0.955447
v -0.2386283 -2.096164 -1.558303
v -0.2386283 -2.096163 -0.9472623
v -0.2168304 -2.066951 -1.542369
v -0.2168304 -2.06695 -0.9313281
v -0.2093498 -2.033287 -1.524007
v -0.2093498 -2.033287 -0.9129665
v -0.2156629 -1.9961 -1.503723
v -0.2156629 -1.9961 -0.8926826
v -0.2375252 -1.971363 -1.49023
v -0.2375252 -1.971363 -0.8791895
v -0.2669719 -1.959115 -1.483549
v -0.2669719 -1.959115 -0.8725085
v -0.2942991 -1.958371 -1.483143
v -0.2942991 -1.958371 -0.8721023
v -0.3170092 -1.970672 -1.489852
v -0.3170092 -1.970672 -0.8788118
v -0.3238372 -1.993813 -1.502475
v -0.3238372 -1.993813 -0.891434
v -0.3170092 -1.970672 -0.8788118
v -0.3170092 -1.970672 -1.489852
v -0.3225196 -2.011992 -1.512391
v -0.3225196 -2.011992 -0.90135
v -0.3122533 -2.025565 -1.519794
v -0.3122533 -2.025565 -0.9087536
v -0.2977049 -2.032762 -1.52372
v -0.2977049 -2.032762 -0.9126793
v -0.2954778 -2.03277 -1.523724
v -0.2954778 -2.03277 -0.9126837

vn -0.2731934 5.960464E-08 0.9619141
vn -0.3183594 5.960464E-08 0.9477539
vn -0.0670166 5.960464E-08 0.9975586
vn -0.0670166 5.960464E-08 0.9975586
vn -0.6557617 5.960464E-08 0.7548828
vn -0.7324219 5.960464E-08 0.6801758
vn -0.9272461 0 0.3735352
vn -0.9750977 0 0.2210693
vn -0.9931641 0 -0.1130981
vn -0.96875 0 -0.2462158
vn -0.7919922 -5.960464E-08 -0.6098633
vn -0.6850586 -5.960464E-08 -0.7280273
vn -0.2792969 -5.960464E-08 -0.9599609
vn -0.237793 -5.960464E-08 -0.9711914
vn 0.2158203 -5.960464E-08 -0.9760742
vn 0.185791 -5.960464E-08 -0.9824219
vn 0.6352539 -5.960464E-08 -0.7719727
vn 0.5649414 -5.960464E-08 -0.824707
vn 0.9326172 0 -0.3601074
vn 0.8676758 0 -0.4960938
vn 0.9960938 0 0.08551025
vn 0.9990234 0 -0.04205322
vn 0.8779297 0 0.4782715
vn 0.9301758 0 0.3666992
vn 0.5883789 5.960464E-08 0.8081055
vn 0.6660156 5.960464E-08 0.7456055
vn 0.2313232 5.960464E-08 0.9726563
vn 0.2624512 5.960464E-08 0.9648438
vn -0.1165161 5.960464E-08 0.9931641
vn -0.1322021 5.960464E-08 0.9912109
vn -0.439209 5.960464E-08 0.8979492
vn -0.4870605 5.960464E-08 0.8730469
vn -0.7084961 5.960464E-08 0.7050781
vn -0.7666016 5.960464E-08 0.6420898
vn -0.8823242 0 0.4702148
vn -0.9086914 0 0.4172363
vn -0.9575195 0 0.2871094
vn -0.9726563 0 0.2302246
vn -0.9892578 0 0.1437988
vn -0.9921875 0 0.1240845
vn -0.996582 0 0.07855225
vn -0.9980469 0 0.05618286
vn -0.9995117 0 0.02113342
vn -0.9995117 0 0.01094055
vn -1 0 1.788139E-07
vn -1 0 0
vn -1 0 0
vn -1 0 0
vn -1 0 0
vn -1 0 1.788139E-07
vn -1 0 1.788139E-07
vn -1 0 0
vn -0.9995117 0 -0.01573181
vn -0.9995117 0 -0.03039551
vn -0.9985352 0 -0.04611206
vn -0.9985352 0 -0.04611206
vn 0.9995117 0 0.01573181
vn 0.9995117 0 0.03039551
vn 0.9985352 0 0.04611206
vn 0.9985352 0 0.04611206
vn 1 0 -1.430511E-06
vn 1 0 -2.980232E-07
vn 1 0 -8.940697E-07
vn 1 0 -1.788139E-06
vn 1 0 7.152557E-07
vn 1 0 3.576279E-07
vn 1 0 1.251698E-06
vn 1 0 1.132488E-06
vn 0.9995117 0 0.02755737
vn 0.9995117 0 0.01426697
vn 0.9995117 0 -0.008506775
vn 0.9995117 0 0.01576233
vn 0.9946289 0 -0.1016235
vn 0.9975586 0 -0.06939697
vn 0.9633789 0 -0.2675781
vn 0.9785156 0 -0.2060547
vn 0.8876953 0 -0.4594727
vn 0.9140625 0 -0.4042969
vn 0.7197266 -5.960464E-08 -0.6938477
vn 0.7758789 -5.960464E-08 -0.6308594
vn 0.4438477 -5.960464E-08 -0.8959961
vn 0.4956055 -5.960464E-08 -0.8681641
vn 0.1220703 -5.960464E-08 -0.9921875
vn 0.1375732 -5.960464E-08 -0.9902344
vn -0.2147217 -5.960464E-08 -0.9765625
vn -0.2434082 -5.960464E-08 -0.9697266
vn -0.5800781 -5.960464E-08 -0.8144531
vn -0.6621094 -5.960464E-08 -0.7490234
vn -0.8808594 0 -0.4729004
vn -0.9321289 0 -0.3613281
vn -0.9960938 0 -0.08636475
vn -0.9990234 0 0.03582764
vn -0.9326172 0 0.3603516
vn -0.8632813 5.960464E-08 0.5039063
vn -0.6142578 5.960464E-08 0.7885742
vn -0.5429688 5.960464E-08 0.8393555
vn -0.2210693 5.960464E-08 0.9750977
vn -0.1954346 5.960464E-08 0.9804688
vn 0.2504883 5.960464E-08 0.9677734
vn 0.2105713 5.960464E-08 0.9775391
vn 0.4760742 5.960464E-08 0.8789063
vn 0.4760742 5.960464E-08 0.8789063
vn 0.9985352 0 0.05093384
vn 0.9863281 0 0.1633301
vn 0.9589844 0 0.282959
vn 0.9589844 0 0.282959
vn 0.9013672 0 -0.4328613
vn 0.9614258 0 -0.2731934
vn 0.5966797 -5.960464E-08 -0.8017578
vn 0.6723633 -5.960464E-08 -0.7397461
vn 0.2106934 -5.960464E-08 -0.9770508
vn 0.2453613 -5.960464E-08 -0.9692383
vn 0.00356102 -5.960464E-08 -0.9995117
vn 0.00356102 -5.960464E-08 -0.9995117

vt 3.132813 0.0001160502
vt 3.132813 0.6972656
vt 3.150391 0.6972656
vt 3.150391 0.0001160502
vt 3.09375 0.0001160502
vt 3.09375 0.6972656
vt 3.068359 0.0001160502
vt 3.068359 0.6972656
vt 3.039063 0.0001160502
vt 3.039063 0.6972656
vt 2.994141 0.0001160502
vt 2.994141 0.6972656
vt 2.949219 0.0001160502
vt 2.949219 0.6972656
vt 2.908203 0.0001160502
vt 2.908203 0.6972656
vt 2.855469 0.0001160502
vt 2.855469 0.6972656
vt 2.791016 0.0001160502
vt 2.791016 0.6972656
vt 2.720703 0.0001160502
vt 2.720703 0.6972656
vt 2.664063 0.0001160502
vt 2.664063 0.6972656
vt 2.591797 0.0001160502
vt 2.591797 0.6972656
vt 2.513672 0.0001160502
vt 2.513672 0.6972656
vt 2.435547 0.0001160502
vt 2.435547 0.6972656
vt 2.367188 0.0001160502
vt 2.367188 0.6972656
vt 2.300781 0.0001160502
vt 2.300781 0.6972656
vt 2.232422 0.0001160502
vt 2.232422 0.6972656
vt 2.171875 0.0001160502
vt 2.171875 0.6972656
vt 2.119141 0.0001160502
vt 2.119141 0.6972656
vt 2.068359 0.0001160502
vt 2.068359 0.6972656
vt 2.015625 0.0001160502
vt 2.015625 0.6972656
vt 1.6875 0.0001160502
vt 1.6875 0.6972656
vt 1.327148 0.0001160502
vt 1.327148 0.6972656
vt 0.9672852 0.0001160502
vt 0.9672852 0.6972656
vt 0.6074219 0.0001160502
vt 0.6074219 0.6972656
vt 0.3056641 0.0001160502
vt 0.3056641 0.6972656
vt 0.005260468 0.0001160502
vt 0.005260468 0.6962891
vt 0.3056641 0.0001160502
vt 0.3056641 0.6972656
vt 0.005260468 0.6972656
vt 0.005260468 -0.0008387566
vt 0.6074219 0.0001160502
vt 0.6074219 0.6972656
vt 0.9672852 0.0001160502
vt 0.9672852 0.6972656
vt 1.327148 0.0001160502
vt 1.327148 0.6972656
vt 1.6875 0.0001160502
vt 1.6875 0.6972656
vt 2.015625 0.0001160502
vt 2.015625 0.6972656
vt 2.068359 0.0001160502
vt 2.068359 0.6972656
vt 2.119141 0.0001160502
vt 2.119141 0.6972656
vt 2.171875 0.0001160502
vt 2.171875 0.6972656
vt 2.232422 0.0001160502
vt 2.232422 0.6972656
vt 2.300781 0.0001160502
vt 2.300781 0.6972656
vt 2.367188 0.0001160502
vt 2.367188 0.6972656
vt 2.435547 0.0001160502
vt 2.435547 0.6972656
vt 2.513672 0.0001160502
vt 2.513672 0.6972656
vt 2.591797 0.0001160502
vt 2.591797 0.6972656
vt 2.664063 0.0001160502
vt 2.664063 0.6972656
vt 2.720703 0.0001160502
vt 2.720703 0.6972656
vt 2.791016 0.0001160502
vt 2.791016 0.6972656
vt 2.855469 0.0001160502
vt 2.855469 0.6972656
vt 2.908203 0.0001160502
vt 2.908203 0.6972656
vt 2.949219 0.0001160502
vt 2.949219 0.6972656
vt 2.994141 0.0001160502
vt 2.994141 0.6972656
vt 3.039063 0.0001160502
vt 3.039063 0.6972656
vt 2.994141 0.6972656
vt 2.994141 0.0001160502
vt 3.068359 0.0001160502
vt 3.068359 0.6972656
vt 3.09375 0.0001160502
vt 3.09375 0.6972656
vt 3.132813 0.0001160502
vt 3.132813 0.6972656
vt 3.150391 0.0001160502
vt 3.150391 0.6972656

g StairsRightRail_2008_21
usemtl StairsRightRail_2008_21
usemap StairsRightRail_2008_21
f 1/1/1 3/3/3 2/2/2
f 1/1/1 4/4/4 3/3/3
f 5/5/5 1/1/1 2/2/2
f 5/5/5 2/2/2 6/6/6
f 7/7/7 5/5/5 6/6/6
f 7/7/7 6/6/6 8/8/8
f 9/9/9 7/7/7 8/8/8
f 9/9/9 8/8/8 10/10/10
f 11/11/11 9/9/9 10/10/10
f 11/11/11 10/10/10 12/12/12
f 13/13/13 11/11/11 12/12/12
f 13/13/13 12/12/12 14/14/14
f 15/15/15 13/13/13 14/14/14
f 15/15/15 14/14/14 16/16/16
f 17/17/17 15/15/15 16/16/16
f 17/17/17 16/16/16 18/18/18
f 19/19/19 17/17/17 18/18/18
f 19/19/19 18/18/18 20/20/20
f 21/21/21 19/19/19 20/20/20
f 21/21/21 20/20/20 22/22/22
f 23/23/23 21/21/21 22/22/22
f 23/23/23 22/22/22 24/24/24
f 25/25/25 23/23/23 24/24/24
f 25/25/25 24/24/24 26/26/26
f 27/27/27 25/25/25 26/26/26
f 27/27/27 26/26/26 28/28/28
f 29/29/29 27/27/27 28/28/28
f 29/29/29 28/28/28 30/30/30
f 31/31/31 29/29/29 30/30/30
f 31/31/31 30/30/30 32/32/32
f 33/33/33 31/31/31 32/32/32
f 33/33/33 32/32/32 34/34/34
f 35/35/35 33/33/33 34/34/34
f 35/35/35 34/34/34 36/36/36
f 37/37/37 35/35/35 36/36/36
f 37/37/37 36/36/36 38/38/38
f 39/39/39 37/37/37 38/38/38
f 39/39/39 38/38/38 40/40/40
f 41/41/41 39/39/39 40/40/40
f 41/41/41 40/40/40 42/42/42
f 43/43/43 41/41/41 42/42/42
f 43/43/43 42/42/42 44/44/44
f 45/45/45 43/43/43 44/44/44
f 45/45/45 44/44/44 46/46/46
f 47/47/47 45/45/45 46/46/46
f 47/47/47 46/46/46 48/48/48
f 49/49/49 47/47/47 48/48/48
f 49/49/49 48/48/48 50/50/50
f 51/51/51 49/49/49 50/50/50
f 51/51/51 50/50/50 52/52/52
f 53/53/53 51/51/51 52/52/52
f 53/53/53 52/52/52 54/54/54
f 55/55/55 53/53/53 54/54/54
f 55/55/55 54/54/54 56/56/56
f 57/57/57 59/59/59 58/58/58
f 57/57/57 60/60/60 59/59/59
f 61/61/61 57/57/57 58/58/58
f 61/61/61 58/58/58 62/62/62
f 63/63/63 61/61/61 62/62/62
f 63/63/63 62/62/62 64/64/64
f 65/65/65 63/63/63 64/64/64
f 65/65/65 64/64/64 66/66/66
f 67/67/67 65/65/65 66/66/66
f 67/67/67 66/66/66 68/68/68
f 69/69/69 67/67/67 68/68/68
f 69/69/69 68/68/68 70/70/70
f 71/71/71 69/69/69 70/70/70
f 71/71/71 70/70/70 72/72/72
f 73/73/73 71/71/71 72/72/72
f 73/73/73 72/72/72 74/74/74
f 75/75/75 73/73/73 74/74/74
f 75/75/75 74/74/74 76/76/76
f 77/77/77 75/75/75 76/76/76
f 77/77/77 76/76/76 78/78/78
f 79/79/79 77/77/77 78/78/78
f 79/79/79 78/78/78 80/80/80
f 81/81/81 79/79/79 80/80/80
f 81/81/81 80/80/80 82/82/82
f 83/83/83 81/81/81 82/82/82
f 83/83/83 82/82/82 84/84/84
f 85/85/85 83/83/83 84/84/84
f 85/85/85 84/84/84 86/86/86
f 87/87/87 85/85/85 86/86/86
f 87/87/87 86/86/86 88/88/88
f 89/89/89 87/87/87 88/88/88
f 89/89/89 88/88/88 90/90/90
f 91/91/91 89/89/89 90/90/90
f 91/91/91 90/90/90 92/92/92
f 93/93/93 91/91/91 92/92/92
f 93/93/93 92/92/92 94/94/94
f 95/95/95 93/93/93 94/94/94
f 95/95/95 94/94/94 96/96/96
f 97/97/97 95/95/95 96/96/96
f 97/97/97 96/96/96 98/98/98
f 99/99/99 97/97/97 98/98/98
f 99/99/99 98/98/98 100/100/100
f 101/101/101 99/99/99 100/100/100
f 101/101/101 100/100/100 102/102/102
f 103/103/103 105/105/105 104/104/104
f 103/103/103 106/106/106 105/105/105
f 107/107/107 103/103/103 104/104/104
f 107/107/107 104/104/104 108/108/108
f 109/109/109 107/107/107 108/108/108
f 109/109/109 108/108/108 110/110/110
f 111/111/111 109/109/109 110/110/110
f 111/111/111 110/110/110 112/112/112
f 113/113/113 111/111/111 112/112/112
f 113/113/113 112/112/112 114/114/114
