#WinOpenFrame_A003_1894_36.obj

v -0.7391909 0.01005171 -0.7226558
v -0.02540097 0.01005171 -0.7226559
v -0.02540097 0.01005171 0.7226551
v -0.7391907 0.01005171 0.7226551
v -0.02540097 -0.01005088 -0.7226559
v -0.7391909 -0.0100531 -0.7226558
v -0.7391907 -0.0100531 0.7226551
v -0.02540097 -0.01005088 0.7226551

vn -1 5.960464E-08 5.960464E-08
vn -1 5.960464E-08 5.960464E-08
vn -1 5.960464E-08 5.960464E-08
vn -1 5.960464E-08 5.960464E-08
vn 1 0 -5.960464E-08
vn 1 0 -5.960464E-08
vn 1 0 -5.960464E-08
vn 1 0 -5.960464E-08

vt 0.3547363 0.07037354
vt 0.1207275 0.07037354
vt 0.1207275 0.5444336
vt 0.3547363 0.5444336
vt 0.8789063 0.07037354
vt 0.6450195 0.07037354
vt 0.6450195 0.5444336
vt 0.8789063 0.5444336

g WinOpenFrame_A003_1894_36
usemtl WinOpenFrame_A003_1894_36
usemap WinOpenFrame_A003_1894_36
f 1/1/1 3/3/3 2/2/2
f 1/1/1 4/4/4 3/3/3
f 5/5/5 7/7/7 6/6/6
f 5/5/5 8/8/8 7/7/7
