#WinOpenFrame_B005_1869_63.obj

v 0.02539978 0.01005043 0.7226543
v 0.02539978 0.01005043 -0.7226568
v 0.7391902 0.01005088 -0.7226568
v 0.7391902 0.01005088 0.7226543
v 0.7391902 -0.01005394 0.7226543
v 0.7391902 -0.01005172 -0.7226568
v 0.02539979 -0.01005216 -0.7226568
v 0.02539979 -0.01005438 0.7226543

vn -1.192093E-07 1.788139E-07 1
vn -1.192093E-07 1.788139E-07 1
vn -1.192093E-07 1.788139E-07 1
vn -1.192093E-07 1.788139E-07 1
vn 1.192093E-07 -5.960464E-08 -1
vn 1.192093E-07 -5.960464E-08 -1
vn 1.192093E-07 -5.960464E-08 -1
vn 1.192093E-07 -5.960464E-08 -1

vt 0.8789063 0.5444336
vt 0.8789063 0.07037354
vt 0.6450195 0.07037354
vt 0.6450195 0.5444336
vt 0.3547363 0.5444336
vt 0.3547363 0.07037354
vt 0.1207275 0.07037354
vt 0.1207275 0.5444336

g WinOpenFrame_B005_1869_63
usemtl WinOpenFrame_B005_1869_63
usemap WinOpenFrame_B005_1869_63
f 1/1/1 3/3/3 2/2/2
f 1/1/1 4/4/4 3/3/3
f 5/5/5 7/7/7 6/6/6
f 5/5/5 8/8/8 7/7/7
